<svg t="1639056612448" class="icon" viewBox="0 0 1024 1024" version="1.1" xmlns="http://www.w3.org/2000/svg" p-id="2741" width="20" height="20"><path d="M773.888 287.232c-71.168-71.168-182.784-81.92-265.984-27.904a211.456 211.456 0 0 0-265.984 27.904c-82.688 82.688-82.688 217.6 0 300.288l243.712 243.712c5.376 5.376 12.544 8.192 19.712 8.192 0.768 0 1.536-0.256 2.56-0.256 0.768 0 1.536 0.256 2.56 0.256 7.168 0 14.336-2.816 19.712-8.192l243.712-243.712c82.688-82.688 82.688-217.344 0-300.288z m-39.424 261.12l-226.56 226.56-226.56-226.56a156.8256 156.8256 0 0 1 0-221.696 155.8528 155.8528 0 0 1 202.752-16.128c4.608 3.328 9.984 5.12 15.104 5.376 9.216 4.608 20.48 3.84 29.184-2.816 61.952-47.616 150.528-41.728 206.08 13.568a156.8256 156.8256 0 0 1 0 221.696z" fill="#1B1F28" p-id="2742"></path><path d="M435.712 640.256c-5.12 0-10.24-2.048-14.336-5.888l-76.288-76.288a20.224 20.224 0 0 1 0-28.672 20.224 20.224 0 0 1 28.672 0l76.288 76.288c7.936 7.936 7.936 20.736 0 28.672-4.096 3.84-9.216 5.888-14.336 5.888z" fill="#005CFF" p-id="2743"></path></svg>