<svg t="1639056572115" class="icon" viewBox="0 0 1024 1024" version="1.1" xmlns="http://www.w3.org/2000/svg" p-id="2473" width="20" height="20"><path d="M567.808 424.704c-3.584 3.584-8.192 5.632-13.568 5.632h-102.912a19.1744 19.1744 0 1 1 0-38.4h102.912a19.1744 19.1744 0 0 1 13.568 32.768z" fill="#005CFF" p-id="2474"></path><path d="M758.528 391.68l-201.472-177.152a74.752 74.752 0 0 0-98.304 0c-15.104 13.312-30.208 26.624-45.312 39.68l-89.088 78.336-51.456 45.312c-9.984 8.704-20.736 13.824-22.272 34.048-1.28 16.64-0.256 33.536 0.768 50.176 1.536 28.928 0.768 57.856 0.768 86.784v225.792c0 44.032 35.84 79.616 79.616 79.616h109.312c0.768 0 1.28-0.256 1.792-0.256 0.512 0 1.28 0.256 1.792 0.256 14.08 0 25.6-11.52 25.6-25.6v-231.168c0-21.248 17.408-38.656 38.656-38.656s38.656 17.408 38.656 38.656v231.168c0 14.08 11.52 25.6 25.6 25.6 1.024 0 2.304-0.256 3.328-0.256 1.024 0.256 2.304 0.256 3.328 0.256h106.24c44.032 0 79.616-35.84 79.616-79.616v-62.464-133.632-123.648c0-12.544 0.256-25.088 0.256-37.632 0.512-9.472 0-18.944-7.424-25.6z m-71.936 411.136h-87.296v-205.568c0-49.664-40.448-89.856-89.856-89.856s-89.856 40.448-89.856 89.856v205.568h-87.296c-15.616 0-28.416-12.8-28.416-28.416v-57.344-125.184-69.632c0-16.128 0.768-33.024 0-49.408-0.512-16.128-4.352-32.768-0.768-48.64 1.792-7.936 7.168-11.008 12.8-15.872 5.12-4.608 10.496-9.216 15.616-13.568 14.336-12.544 28.416-25.088 42.752-37.632 30.464-26.624 60.672-53.504 91.136-80.128 8.96-7.936 18.176-15.872 27.136-23.808a23.04 23.04 0 0 1 30.464 0c16.384 14.592 33.024 28.928 49.408 43.52 30.72 26.88 61.44 54.016 91.904 80.896l31.488 27.648c7.68 6.656 17.152 12.032 19.968 22.528 2.816 10.496 1.28 21.248 0.512 31.744-2.048 22.784-1.28 45.568-1.28 68.352v247.04c-0.256 15.36-12.8 27.904-28.416 27.904z" fill="#1B1F28" p-id="2475"></path></svg>